<svg class="site-logo" width="72" height="62" viewBox="131.1 120.55 261.65 226.85" xmlns="http://www.w3.org/2000/svg" role="img" aria-label="WinDisplayManager logo">
  <!-- Monitor -->
  <path fill="currentColor" d="M 365.047 120.547 L 158.791 120.547 C 143.497 120.554 131.102 132.953 131.101 148.247 L 131.101 276.344 C 131.102 291.636 143.498 304.033 158.791 304.034 L 229.066 304.034 L 229.066 326.233 L 197.294 326.233 C 189.148 326.233 184.056 335.051 188.129 342.106 C 190.02 345.38 193.513 347.397 197.294 347.397 L 326.547 347.397 C 334.693 347.397 339.784 338.579 335.711 331.524 C 333.821 328.25 330.327 326.233 326.547 326.233 L 294.771 326.233 L 294.771 304.035 L 365.046 304.035 C 380.342 304.038 392.744 291.64 392.746 276.344 L 392.746 148.242 C 392.742 132.946 380.342 120.548 365.046 120.547 L 365.047 120.547 Z M 368.507 276.34 C 368.502 278.25 366.956 279.797 365.047 279.804 L 158.791 279.804 C 156.881 279.798 155.336 278.249 155.336 276.34 L 155.336 148.242 C 155.337 146.334 156.883 144.789 158.791 144.788 L 365.047 144.788 C 366.954 144.79 368.501 146.334 368.507 148.242 L 368.507 276.34 Z" data-name="Monitor" />
  <!-- Centered Lightning Bolt -->
  <path transform="translate(5, -10)" fill="#ffdd00" d="M 271 190 L 248.371 190 L 236.157 224.479 C 236.124 224.577 236.197 224.676 236.306 224.681 L 250.319 224.681 C 250.433 224.676 250.517 224.78 250.484 224.882 L 239.64 255.276 C 239.438 255.842 239.967 256.398 240.589 256.277 C 240.792 256.238 240.97 256.13 241.092 255.972 L 273.806 213.863 C 273.882 213.769 273.82 213.631 273.692 213.617 C 273.688 213.617 273.681 213.616 273.674 213.616 L 258.968 213.616 C 258.847 213.603 258.775 213.489 258.819 213.384 L 271.149 190.17 C 271.157 190.085 271.091 190.009 271 190 Z" />
</svg>
